<svg width="120" height="160" viewBox="0 0 120 160" fill="none" xmlns="http://www.w3.org/2000/svg">
<path d="M66.5 115.333L43.5 84.6666C43 83.9999 42.6467 83.2777 42.44 82.4999C42.23 81.7221 42.125 80.8888 42.125 79.9999C42.125 79.111 42.23 78.2777 42.44 77.4999C42.6467 76.7221 43 75.9999 43.5 75.3333L66.5 44.6666C67.4167 43.4444 68.5833 42.8333 70 42.8333C71.4167 42.8333 72.5833 43.4444 73.5 44.6666C74.4167 45.8888 74.875 47.4444 74.875 49.3333C74.875 51.2221 74.4167 52.7777 73.5 53.9999L54 79.9999L73.5 106C74.4167 107.222 74.875 108.778 74.875 110.667C74.875 112.555 74.4167 114.111 73.5 115.333C72.5833 116.555 71.4167 117.167 70 117.167C68.5833 117.167 67.4167 116.555 66.5 115.333Z" fill="white"/>
</svg>
