<svg width="120" height="160" viewBox="0 0 120 160" fill="none" xmlns="http://www.w3.org/2000/svg">
<path d="M43.3946 115.333C42.4802 114.111 42.0229 112.555 42.0229 110.667C42.0229 108.778 42.4802 107.222 43.3946 106L62.8473 79.9999L43.3946 53.9999C42.4802 52.7777 42.0229 51.2221 42.0229 49.3333C42.0229 47.4444 42.4802 45.8888 43.3946 44.6666C44.309 43.4444 45.4729 42.8333 46.8861 42.8333C48.2993 42.8333 49.4632 43.4444 50.3776 44.6666L73.3218 75.3333C73.8206 75.9999 74.1747 76.7221 74.3842 77.4999C74.5903 78.2777 74.6934 79.111 74.6934 79.9999C74.6934 80.8888 74.5903 81.7221 74.3842 82.4999C74.1747 83.2777 73.8206 83.9999 73.3218 84.6666L50.3776 115.333C49.4632 116.555 48.2993 117.167 46.8861 117.167C45.4729 117.167 44.309 116.555 43.3946 115.333Z" fill="white"/>
</svg>
