<svg width="24" height="24" viewBox="0 0 24 24" fill="none" xmlns="http://www.w3.org/2000/svg">
<path d="M22.1156 8.81244L12.7406 3.49682C12.5151 3.36772 12.2598 3.2998 12 3.2998C11.7402 3.2998 11.4849 3.36772 11.2594 3.49682L1.88438 8.81244C1.76762 8.87763 1.67042 8.97285 1.60284 9.08823C1.53525 9.20362 1.49975 9.33497 1.5 9.46869V15.4687C1.49975 15.6024 1.53525 15.7338 1.60284 15.8491C1.67042 15.9645 1.76762 16.0598 1.88438 16.1249L11.2594 21.4406C11.4849 21.5697 11.7402 21.6376 12 21.6376C12.2598 21.6376 12.5151 21.5697 12.7406 21.4406L22.1156 16.1249C22.2324 16.0598 22.3296 15.9645 22.3972 15.8491C22.4647 15.7338 22.5003 15.6024 22.5 15.4687V9.46869C22.5003 9.33497 22.4647 9.20362 22.3972 9.08823C22.3296 8.97285 22.2324 8.87763 22.1156 8.81244ZM21 14.1843L17.9813 12.4687L21 10.7531V14.1843ZM16.4625 11.6062L12.75 9.49682V5.22182L20.2313 9.46869L16.4625 11.6062ZM12 14.1374L9.05625 12.4687L12 10.7999L14.9438 12.4687L12 14.1374ZM11.25 5.22182V9.49682L7.5375 11.6062L3.76875 9.46869L11.25 5.22182ZM3 10.7531L6.01875 12.4687L3 14.1843V10.7531ZM7.5375 13.3312L11.25 15.4406V19.7156L3.76875 15.4687L7.5375 13.3312ZM12.75 19.7156V15.4406L16.4625 13.3312L20.2313 15.4687L12.75 19.7156Z" fill="#000"/>
</svg>
