<svg width="20" height="20" viewBox="0 0 20 20" fill="none" xmlns="http://www.w3.org/2000/svg">
<path fill-rule="evenodd" clip-rule="evenodd" d="M17.1389 3.80534C17.2008 3.74336 17.25 3.66977 17.2836 3.58879C17.3171 3.5078 17.3344 3.421 17.3344 3.33334C17.3344 3.24568 17.3171 3.15888 17.2836 3.0779C17.25 2.99691 17.2008 2.92333 17.1389 2.86134C17.0769 2.79936 17.0033 2.75019 16.9223 2.71664C16.8413 2.6831 16.7545 2.66583 16.6669 2.66583C16.5792 2.66583 16.4924 2.6831 16.4114 2.71664C16.3304 2.75019 16.2568 2.79936 16.1949 2.86134L10.0002 9.05734L3.80552 2.86134C3.74354 2.79936 3.66995 2.75019 3.58897 2.71664C3.50798 2.6831 3.42118 2.66583 3.33352 2.66583C3.24587 2.66583 3.15907 2.6831 3.07808 2.71664C2.99709 2.75019 2.92351 2.79936 2.86152 2.86134C2.79954 2.92333 2.75037 2.99691 2.71683 3.0779C2.68328 3.15888 2.66602 3.24568 2.66602 3.33334C2.66602 3.421 2.68328 3.5078 2.71683 3.58879C2.75037 3.66977 2.79954 3.74336 2.86152 3.80534L9.05752 10L2.86152 16.1947C2.73634 16.3199 2.66602 16.4896 2.66602 16.6667C2.66602 16.8437 2.73634 17.0135 2.86152 17.1387C2.98671 17.2639 3.15649 17.3342 3.33352 17.3342C3.51056 17.3342 3.68034 17.2639 3.80552 17.1387L10.0002 10.9427L16.1949 17.1387C16.32 17.2639 16.4898 17.3342 16.6669 17.3342C16.8439 17.3342 17.0137 17.2639 17.1389 17.1387C17.264 17.0135 17.3344 16.8437 17.3344 16.6667C17.3344 16.4896 17.264 16.3199 17.1389 16.1947L10.9429 10L17.1389 3.80534Z" fill="#01C38E"/>
</svg>
