<svg width="14" height="20" viewBox="0 0 14 20" fill="none" xmlns="http://www.w3.org/2000/svg">
<g clip-path="url(#clip0_63_271)">
<path d="M3.39286 19.9999C5.26571 19.9999 6.78571 18.5066 6.78571 16.6666V13.3333H3.39286C1.52 13.3333 0 14.8266 0 16.6666C0 18.5066 1.52 19.9999 3.39286 19.9999Z" fill="#0ACF83"/>
<path d="M0 10.0001C0 8.16008 1.52 6.66675 3.39286 6.66675H6.78571V13.3334H3.39286C1.52 13.3334 0 11.8401 0 10.0001Z" fill="#A259FF"/>
<path d="M0 3.33333C0 1.49333 1.52 0 3.39286 0H6.78571V6.66667H3.39286C1.52 6.66667 0 5.17333 0 3.33333Z" fill="#F24E1E"/>
<path d="M6.78564 0H10.1785C12.0514 0 13.5714 1.49333 13.5714 3.33333C13.5714 5.17333 12.0514 6.66667 10.1785 6.66667H6.78564V0Z" fill="#FF7262"/>
<path d="M13.5714 10.0001C13.5714 11.8401 12.0514 13.3334 10.1785 13.3334C8.30564 13.3334 6.78564 11.8401 6.78564 10.0001C6.78564 8.16008 8.30564 6.66675 10.1785 6.66675C12.0514 6.66675 13.5714 8.16008 13.5714 10.0001Z" fill="#1ABCFE"/>
</g>
<defs>
<clipPath id="clip0_63_271">
<rect width="13.5714" height="20" fill="white"/>
</clipPath>
</defs>
</svg>
