<svg width="20" height="20" viewBox="0 0 20 20" fill="none" xmlns="http://www.w3.org/2000/svg">
<path d="M2.78149 14.1667C3.51276 15.434 4.56492 16.4863 5.83208 17.2178C7.09924 17.9492 8.53671 18.334 9.99983 18.3334C11.4629 18.334 12.9004 17.9492 14.1676 17.2178C15.4347 16.4863 16.4869 15.434 17.2182 14.1667M2.78149 5.83342C3.51276 4.56615 4.56492 3.51384 5.83208 2.78239C7.09924 2.05094 8.53671 1.66616 9.99983 1.66675C11.4629 1.66616 12.9004 2.05094 14.1676 2.78239C15.4347 3.51384 16.4869 4.56615 17.2182 5.83342" stroke="white" stroke-linecap="round" stroke-linejoin="round"/>
<path d="M10.8333 18.2918C10.8333 18.2918 12.0066 16.7477 12.7458 14.1668M10.8333 1.7085C10.8333 1.7085 12.0066 3.25183 12.7458 5.8335M9.16659 18.2918C9.16659 18.2918 7.99325 16.7485 7.25409 14.1668M9.16659 1.7085C9.16659 1.7085 7.99325 3.25183 7.25409 5.8335M7.49992 8.3335L8.74992 12.5002L9.99992 8.3335L11.2499 12.5002L12.4999 8.3335M0.833252 8.3335L2.08325 12.5002L3.33325 8.3335L4.58325 12.5002L5.83325 8.3335M14.1666 8.3335L15.4166 12.5002L16.6666 8.3335L17.9166 12.5002L19.1666 8.3335" stroke="white" stroke-linecap="round" stroke-linejoin="round"/>
</svg>
