<svg width="24" height="24" viewBox="0 0 24 24" fill="none" xmlns="http://www.w3.org/2000/svg">
<path d="M21.7501 12.0655V11.9999C21.7492 10.553 21.4265 9.12438 20.8055 7.81751C20.1845 6.51064 19.2807 5.35821 18.1595 4.44364L18.1032 4.39676L18.0376 4.34989C16.6063 3.21882 14.8863 2.51202 13.0732 2.30983C11.2602 2.10764 9.42673 2.41818 7.78137 3.20614L7.65949 3.27176C6.3294 3.93527 5.16791 4.893 4.26313 6.0723C3.35835 7.2516 2.73406 8.62148 2.43762 10.078V10.0968C2.07728 11.8982 2.23476 13.7649 2.89182 15.4806C3.54887 17.1962 4.67861 18.6906 6.15012 19.7905L6.27199 19.8843H6.28137C7.55438 20.8073 9.03173 21.4087 10.5874 21.6372C12.1432 21.8657 13.7311 21.7146 15.2157 21.1968L15.3189 21.1593C17.1867 20.4804 18.8031 19.2479 19.9522 17.6265C21.1013 16.005 21.7285 14.0715 21.7501 12.0843V12.0655ZM20.2126 11.2686L19.5001 11.2499C18.1104 11.251 16.7268 11.4338 15.3845 11.7936C15.0555 10.823 14.6316 9.88725 14.1189 8.99989C15.4533 8.19595 16.6603 7.19746 17.7001 6.03739C19.1463 7.41726 20.0397 9.27723 20.2126 11.2686ZM16.5282 5.10926C15.5917 6.13811 14.5081 7.0227 13.3126 7.73426C12.3089 6.32739 11.0836 5.09261 9.68449 4.07801C10.8319 3.74463 12.038 3.66418 13.2196 3.84222C14.4011 4.02027 15.53 4.45256 16.5282 5.10926ZM8.02512 4.77176C9.56154 5.73584 10.9009 6.98293 11.972 8.44676C10.0978 9.30432 8.06115 9.74874 6.00012 9.74989C5.36353 9.7485 4.72774 9.70465 4.09699 9.61864C4.72594 7.5535 6.13504 5.81483 8.02512 4.77176ZM3.75012 11.9999C3.75012 11.6905 3.76887 11.3905 3.79699 11.0999C4.52742 11.1968 5.26329 11.2469 6.00012 11.2499C8.35233 11.2532 10.6752 10.7278 12.797 9.71239C13.2645 10.519 13.6507 11.3701 13.9501 12.253C13.1547 12.5561 12.3837 12.9197 11.6439 13.3405C9.58787 14.5309 7.8257 16.1681 6.48762 18.1311C5.62651 17.3586 4.93772 16.4133 4.46607 15.357C3.99442 14.3006 3.75047 13.1568 3.75012 11.9999ZM7.68762 19.0311C9.3124 16.6122 11.6432 14.7529 14.3626 13.7061C14.5911 14.7374 14.7074 15.7904 14.7095 16.8468C14.709 17.8712 14.599 18.8926 14.3814 19.8936C13.6101 20.1319 12.8073 20.252 12.0001 20.2499C10.4777 20.2493 8.98513 19.8275 7.68762 19.0311ZM16.0407 19.1905C16.1536 18.4144 16.21 17.6311 16.2095 16.8468C16.2087 15.6319 16.0703 14.4211 15.797 13.2374C17.0051 12.9152 18.2498 12.7514 19.5001 12.7499L20.2126 12.7686C20.0873 14.0963 19.6424 15.374 18.9159 16.4923C18.1894 17.6106 17.2029 18.5364 16.0407 19.1905Z" fill="#000"/>
</svg>
